<svg width="21" height="21" viewBox="0 0 21 21" fill="none" xmlns="http://www.w3.org/2000/svg">
<path d="M20.1599 12.0687C20.0156 11.9241 19.8346 11.8216 19.6364 11.772C19.4383 11.7225 19.2303 11.7278 19.0349 11.7875C17.67 12.1995 16.2189 12.2336 14.8362 11.8862C13.4535 11.5387 12.1909 10.8226 11.1829 9.81431C10.175 8.80597 9.45942 7.54311 9.11246 6.16024C8.76551 4.77737 8.80017 3.32629 9.21273 1.96156C9.27292 1.76609 9.27868 1.55792 9.2294 1.35942C9.18012 1.16092 9.07766 0.979617 8.93304 0.834998C8.78843 0.690379 8.60712 0.58792 8.40862 0.538639C8.21012 0.489359 8.00195 0.495122 7.80648 0.555309C5.75373 1.18624 3.95231 2.44864 2.65867 4.16281C1.52739 5.66646 0.837514 7.45561 0.666445 9.32951C0.495376 11.2034 0.849886 13.0879 1.6902 14.7715C2.5305 16.4552 3.82336 17.8713 5.42371 18.8611C7.02405 19.8509 8.86854 20.3751 10.7502 20.375C12.9471 20.3814 15.0855 19.6671 16.8374 18.3416C18.5507 17.0466 19.8118 15.2442 20.4412 13.1909C20.5003 12.9959 20.5054 12.7886 20.4558 12.5909C20.4063 12.3933 20.304 12.2128 20.1599 12.0687ZM15.4837 16.5444C13.9673 17.6859 12.0896 18.2414 10.1962 18.1086C8.30275 17.9757 6.52103 17.1635 5.17889 15.8213C3.83676 14.4792 3.02452 12.6975 2.89167 10.8041C2.75882 8.91065 3.31429 7.03296 4.45586 5.51656C5.0565 4.72195 5.80095 4.04714 6.65055 3.52718C6.63367 3.76718 6.62523 4.00812 6.62523 4.25C6.62821 6.9344 7.69591 9.508 9.59407 11.4062C11.4922 13.3043 14.0658 14.372 16.7502 14.375C16.9921 14.375 17.233 14.3666 17.473 14.3497C16.9533 15.1994 16.2784 15.9439 15.4837 16.5444Z" fill="#585858"/>
</svg>
